<svg width="24" height="24" viewBox="0 0 24 24" fill="none" xmlns="http://www.w3.org/2000/svg">
<path fill-rule="evenodd" clip-rule="evenodd" d="M6.59573 2.93671C8.38202 2.73785 10.1786 2.57157 11.9992 2.57157C13.818 2.57157 15.6163 2.73785 17.4026 2.93671C18.3417 3.04587 19.2163 3.46944 19.8842 4.13859C20.5521 4.80774 20.974 5.68311 21.0814 6.62243C21.27 8.40014 21.4277 10.1881 21.4277 12.0001C21.4277 13.8121 21.2717 15.6001 21.0814 17.3779C20.974 18.3172 20.5521 19.1925 19.8842 19.8617C19.2163 20.5308 18.3417 20.9544 17.4026 21.0636C16.4434 21.1736 15.4821 21.264 14.5192 21.3344V17.071H17.262C17.6306 17.071 17.9649 16.8361 18.0506 16.4779C18.3008 15.4865 18.3008 14.4486 18.0506 13.4573C18.0038 13.2847 17.9009 13.1325 17.7582 13.0248C17.6154 12.9171 17.4408 12.86 17.262 12.8624H14.5192V11.179C14.5192 10.2499 15.2717 9.49557 16.1992 9.49557H17.022C17.2493 9.49557 17.4674 9.40526 17.6281 9.24452C17.7889 9.08377 17.8792 8.86575 17.8792 8.63843V6.97043C17.8796 6.74952 17.8365 6.53069 17.7523 6.32646C17.668 6.12224 17.5444 5.93663 17.3883 5.78027C17.2323 5.6239 17.0469 5.49985 16.8429 5.41521C16.6388 5.33056 16.4201 5.287 16.1992 5.287H15.3592C14.6966 5.28767 14.0407 5.41884 13.4289 5.673C12.817 5.92717 12.2612 6.29936 11.7932 6.76832C11.3252 7.23728 10.9542 7.79383 10.7012 8.4062C10.4483 9.01856 10.3185 9.67475 10.3192 10.3373V12.8624H7.57802C7.39891 12.8596 7.22397 12.9166 7.08085 13.0243C6.93773 13.132 6.83459 13.2844 6.78773 13.4573C6.53753 14.4486 6.53753 15.4865 6.78773 16.4779C6.83491 16.6504 6.93819 16.8024 7.08128 16.9098C7.22437 17.0172 7.39913 17.0739 7.57802 17.071H10.3209V21.3859C9.07619 21.3161 7.83391 21.2086 6.59573 21.0636C5.65662 20.9544 4.78203 20.5308 4.11413 19.8617C3.44623 19.1925 3.02429 18.3172 2.91688 17.3779C2.72831 15.6001 2.57059 13.8121 2.57059 12.0001C2.57059 10.1881 2.72659 8.40014 2.91688 6.62243C3.02429 5.68311 3.44623 4.80774 4.11413 4.13859C4.78203 3.46944 5.65662 3.04587 6.59573 2.93671ZM10.3192 23.5304C8.99588 23.4604 7.6752 23.3478 6.35916 23.1927C4.93507 23.0293 3.60856 22.3875 2.59652 21.3724C1.58448 20.3572 0.946798 19.0287 0.787734 17.6041C0.592306 15.8093 0.427734 13.9304 0.427734 12.0001C0.427734 10.0699 0.59402 8.19271 0.787734 6.39443C0.947162 4.97015 1.58501 3.64206 2.59701 2.62726C3.60902 1.61245 4.93533 0.970933 6.35916 0.807568C8.16259 0.606997 10.0552 0.428711 11.9992 0.428711C13.9432 0.428711 15.834 0.606997 17.6392 0.807568C19.0633 0.971008 20.3898 1.61277 21.4018 2.62792C22.4138 3.64307 23.0515 4.97155 23.2106 6.39614C23.4043 8.19271 23.5706 10.0716 23.5706 12.0001C23.5706 13.9287 23.4043 15.8076 23.2106 17.6059C23.0512 19.0301 22.4133 20.3582 21.4013 21.373C20.3893 22.3878 19.063 23.0293 17.6392 23.1927C16.626 23.3059 15.582 23.4121 14.5192 23.4824V23.4841C13.1213 23.5819 11.7189 23.5979 10.3192 23.5321V23.5304Z" fill="white"/>
</svg>
