<svg width="24" height="24" viewBox="0 0 24 24" fill="none" xmlns="http://www.w3.org/2000/svg">
<path fill-rule="evenodd" clip-rule="evenodd" d="M11.5852 2.3027e-07H12.4148C14.5804 -1.22849e-05 16.2878 -2.20984e-05 17.6445 0.146968C19.0325 0.297352 20.1722 0.6112 21.149 1.32089C21.7362 1.74748 22.2525 2.26383 22.6791 2.85098C23.3888 3.82779 23.7027 4.96748 23.853 6.35551C24 7.71221 24 9.41955 24 11.5852V12.4148C24 14.5805 24 16.2878 23.853 17.6445C23.7027 19.0325 23.3888 20.1722 22.6791 21.149C22.2525 21.7362 21.7362 22.2525 21.149 22.6791C20.1722 23.3888 19.0325 23.7027 17.6445 23.853C16.2878 24 14.5805 24 12.4148 24H11.5852C9.41955 24 7.71221 24 6.35551 23.853C4.96748 23.7027 3.82779 23.3888 2.85098 22.6791C2.26383 22.2525 1.74748 21.7362 1.32089 21.149C0.6112 20.1722 0.297352 19.0325 0.146968 17.6445C-2.20984e-05 16.2878 -1.22849e-05 14.5804 2.30277e-07 12.4148V11.5852C-1.22849e-05 9.41956 -2.20984e-05 7.71222 0.146968 6.35551C0.297352 4.96748 0.6112 3.82779 1.32089 2.85098C1.74748 2.26383 2.26383 1.74748 2.85098 1.32089C3.82779 0.6112 4.96748 0.297352 6.35551 0.146968C7.71222 -2.20984e-05 9.41956 -1.22849e-05 11.5852 2.3027e-07ZM6.572 2.14513C5.35497 2.27698 4.60943 2.52762 4.03235 2.94689C3.61582 3.24952 3.24952 3.61582 2.94689 4.03235C2.52762 4.60943 2.27698 5.35497 2.14513 6.572C2.01123 7.80784 2.00985 9.40635 2.00985 11.6453V12.3547C2.00985 14.5937 2.01123 16.1922 2.14513 17.428C2.27698 18.645 2.52762 19.3906 2.94689 19.9677C3.24952 20.3842 3.61582 20.7505 4.03235 21.0531C4.60943 21.4724 5.35497 21.723 6.572 21.8549C7.80784 21.9888 9.40635 21.9901 11.6453 21.9901H12.3547C14.5937 21.9901 16.1922 21.9888 17.428 21.8549C18.645 21.723 19.3906 21.4724 19.9677 21.0531C20.3842 20.7505 20.7505 20.3842 21.0531 19.9677C21.4724 19.3906 21.723 18.645 21.8549 17.428C21.9888 16.1922 21.9901 14.5937 21.9901 12.3547V11.6453C21.9901 9.40635 21.9888 7.80784 21.8549 6.572C21.723 5.35497 21.4724 4.60943 21.0531 4.03235C20.7505 3.61582 20.3842 3.24952 19.9677 2.94689C19.3906 2.52762 18.645 2.27698 17.428 2.14513C16.1922 2.01123 14.5937 2.00985 12.3547 2.00985H11.6453C9.40635 2.00985 7.80784 2.01123 6.572 2.14513Z" fill="white"/>
<path fill-rule="evenodd" clip-rule="evenodd" d="M12 7.92118C9.74733 7.92118 7.92118 9.74733 7.92118 12C7.92118 14.2527 9.74733 16.0788 12 16.0788C14.2527 16.0788 16.0788 14.2527 16.0788 12C16.0788 9.74733 14.2527 7.92118 12 7.92118ZM5.91133 12C5.91133 8.63732 8.63732 5.91133 12 5.91133C15.3627 5.91133 18.0887 8.63732 18.0887 12C18.0887 15.3627 15.3627 18.0887 12 18.0887C8.63732 18.0887 5.91133 15.3627 5.91133 12Z" fill="white"/>
<path d="M17.0837 5.57143C17.0837 4.81238 17.6991 4.19704 18.4581 4.19704C19.2172 4.19704 19.8325 4.81238 19.8325 5.57143C19.8325 6.33048 19.2172 6.94581 18.4581 6.94581C17.6991 6.94581 17.0837 6.33048 17.0837 5.57143Z" fill="white"/>
</svg>
