<svg aria-hidden="true" style="position: absolute; width: 0; height: 0; overflow: hidden;" version="1.1" xmlns="http://www.w3.org/2000/svg" xmlns:xlink="http://www.w3.org/1999/xlink">
<defs>
<symbol id="icon-teleg" viewBox="0 0 32 32">
<path fill="#fff" style="fill: var(--color1, #fff)" d="M11.404 14.148c-1.423 0.546-2.886 1.108-4.223 1.755-0.698 0.449 0.23 0.768 1.101 1.066 0.138 0.047 0.275 0.094 0.404 0.141 0.107 0.029 0.216 0.059 0.326 0.090 0.968 0.271 2.048 0.574 2.988 0.119 1.544-0.78 3.002-1.682 4.458-2.583 0.477-0.295 0.954-0.59 1.434-0.881 0.023-0.013 0.048-0.027 0.076-0.043 0.409-0.233 1.328-0.757 0.988-0.035-0.804 0.773-1.666 1.458-2.532 2.146-0.584 0.464-1.17 0.929-1.742 1.425-0.498 0.356-1.015 1.071-0.458 1.57 1.285 0.791 2.589 1.562 3.893 2.333 0.424 0.251 0.849 0.502 1.272 0.753 0.718 0.504 1.839 0.096 1.997-0.691 0.070-0.362 0.141-0.724 0.211-1.086 0.389-2.001 0.779-4.003 1.123-6.011 0.047-0.315 0.1-0.63 0.153-0.945 0.129-0.764 0.257-1.528 0.297-2.296-0.104-0.766-1.16-0.598-1.748-0.425-3.023 1.011-6.015 2.097-8.995 3.203-0.338 0.131-0.68 0.263-1.024 0.395z"></path>
<path fill="#fff" style="fill: var(--color1, #fff)" d="M15.447 0c-2.888-0-5.164-0-6.973 0.196-1.851 0.201-3.37 0.619-4.673 1.565-0.783 0.569-1.471 1.257-2.040 2.040-0.946 1.302-1.365 2.822-1.565 4.673-0.196 1.809-0.196 4.085-0.196 6.973v1.106c-0 2.888-0 5.164 0.196 6.973 0.201 1.851 0.619 3.37 1.565 4.673 0.569 0.783 1.257 1.471 2.040 2.040 1.302 0.946 2.822 1.365 4.673 1.565 1.809 0.196 4.085 0.196 6.973 0.196h1.106c2.887 0 5.164 0 6.973-0.196 1.851-0.2 3.37-0.619 4.673-1.565 0.783-0.569 1.471-1.257 2.040-2.040 0.946-1.302 1.365-2.822 1.565-4.673 0.196-1.809 0.196-4.085 0.196-6.973v-1.106c0-2.887 0-5.164-0.196-6.973-0.2-1.851-0.619-3.37-1.565-4.673-0.569-0.783-1.257-1.471-2.040-2.040-1.302-0.946-2.822-1.365-4.673-1.565-1.809-0.196-4.085-0.196-6.973-0.196h-1.106zM5.376 3.929c0.769-0.559 1.763-0.893 3.386-1.069 1.648-0.179 3.779-0.18 6.764-0.18h0.946c2.985 0 5.117 0.002 6.764 0.18 1.623 0.176 2.617 0.51 3.386 1.069 0.555 0.403 1.044 0.892 1.447 1.447 0.559 0.769 0.893 1.763 1.069 3.386 0.179 1.648 0.18 3.779 0.18 6.764v0.946c0 2.985-0.002 5.117-0.18 6.764-0.176 1.623-0.51 2.617-1.069 3.386-0.404 0.555-0.892 1.044-1.447 1.447-0.769 0.559-1.764 0.893-3.386 1.069-1.648 0.179-3.779 0.18-6.764 0.18h-0.946c-2.985 0-5.117-0.002-6.764-0.18-1.623-0.176-2.617-0.51-3.386-1.069-0.555-0.404-1.044-0.892-1.447-1.447-0.559-0.769-0.893-1.764-1.069-3.386-0.179-1.648-0.18-3.779-0.18-6.764v-0.946c0-2.985 0.002-5.117 0.18-6.764 0.176-1.623 0.51-2.617 1.069-3.386 0.403-0.555 0.892-1.044 1.447-1.447z"></path>
</symbol>
<symbol id="icon-insta" viewBox="0 0 32 32">
<path fill="#fff" style="fill: var(--color1, #fff)" d="M15.447 0h1.106c2.888-0 5.164-0 6.973 0.196 1.851 0.201 3.37 0.619 4.673 1.565 0.783 0.569 1.471 1.257 2.040 2.040 0.946 1.302 1.365 2.822 1.565 4.673 0.196 1.809 0.196 4.085 0.196 6.973v1.106c0 2.888 0 5.164-0.196 6.973-0.2 1.851-0.619 3.37-1.565 4.673-0.569 0.783-1.257 1.471-2.040 2.040-1.302 0.946-2.822 1.365-4.673 1.565-1.809 0.196-4.085 0.196-6.973 0.196h-1.106c-2.888 0-5.164 0-6.973-0.196-1.851-0.2-3.37-0.619-4.673-1.565-0.783-0.569-1.471-1.257-2.040-2.040-0.946-1.302-1.365-2.822-1.565-4.673-0.196-1.809-0.196-4.085-0.196-6.973v-1.106c-0-2.888-0-5.164 0.196-6.973 0.201-1.851 0.619-3.37 1.565-4.673 0.569-0.783 1.257-1.471 2.040-2.040 1.302-0.946 2.822-1.365 4.673-1.565 1.809-0.196 4.085-0.196 6.973-0.196zM8.763 2.86c-1.623 0.176-2.617 0.51-3.386 1.069-0.555 0.404-1.044 0.892-1.447 1.447-0.559 0.769-0.893 1.764-1.069 3.386-0.179 1.648-0.18 3.779-0.18 6.764v0.946c0 2.985 0.002 5.117 0.18 6.764 0.176 1.623 0.51 2.617 1.069 3.386 0.403 0.555 0.892 1.044 1.447 1.447 0.769 0.559 1.764 0.893 3.386 1.069 1.648 0.179 3.779 0.18 6.764 0.18h0.946c2.985 0 5.117-0.002 6.764-0.18 1.623-0.176 2.617-0.51 3.386-1.069 0.555-0.404 1.044-0.892 1.447-1.447 0.559-0.769 0.893-1.764 1.069-3.386 0.179-1.648 0.18-3.779 0.18-6.764v-0.946c0-2.985-0.002-5.117-0.18-6.764-0.176-1.623-0.51-2.617-1.069-3.386-0.404-0.555-0.892-1.044-1.447-1.447-0.769-0.559-1.764-0.893-3.386-1.069-1.648-0.179-3.779-0.18-6.764-0.18h-0.946c-2.985 0-5.117 0.002-6.764 0.18z"></path>
<path fill="#fff" style="fill: var(--color1, #fff)" d="M16 10.562c-3.004 0-5.438 2.435-5.438 5.438s2.435 5.438 5.438 5.438c3.004 0 5.438-2.435 5.438-5.438s-2.435-5.438-5.438-5.438zM7.882 16c0-4.484 3.635-8.118 8.118-8.118s8.118 3.635 8.118 8.118c0 4.484-3.635 8.118-8.118 8.118s-8.118-3.635-8.118-8.118z"></path>
<path fill="#fff" style="fill: var(--color1, #fff)" d="M22.778 7.429c0-1.012 0.82-1.832 1.833-1.832s1.833 0.82 1.833 1.832c0 1.012-0.82 1.832-1.833 1.832s-1.833-0.82-1.833-1.832z"></path>
</symbol>
<symbol id="icon-youtube" viewBox="0 0 32 32">
<path fill="#fff" style="fill: var(--color1, #fff)" d="M12.611 19.309c0 1.026 1.111 1.668 2 1.155l5.458-3.151c0.889-0.513 0.889-1.796 0-2.309l-5.458-3.151c-0.889-0.513-2 0.128-2 1.155v6.303z"></path>
<path fill="#fff" style="fill: var(--color1, #fff)" d="M15.447 0c-2.888-0-5.164-0-6.973 0.196-1.851 0.201-3.37 0.619-4.673 1.565-0.783 0.569-1.471 1.257-2.040 2.040-0.946 1.302-1.365 2.822-1.565 4.673-0.196 1.809-0.196 4.085-0.196 6.973v1.106c-0 2.888-0 5.164 0.196 6.973 0.201 1.851 0.619 3.37 1.565 4.673 0.569 0.783 1.257 1.471 2.040 2.040 1.302 0.946 2.822 1.365 4.673 1.565 1.809 0.196 4.085 0.196 6.973 0.196h1.106c2.888 0 5.164 0 6.973-0.196 1.851-0.2 3.37-0.619 4.673-1.565 0.783-0.569 1.471-1.257 2.040-2.040 0.946-1.302 1.365-2.822 1.565-4.673 0.196-1.809 0.196-4.085 0.196-6.973v-1.106c0-2.887 0-5.164-0.196-6.973-0.2-1.851-0.619-3.37-1.565-4.673-0.569-0.783-1.257-1.471-2.040-2.040-1.302-0.946-2.822-1.365-4.673-1.565-1.809-0.196-4.085-0.196-6.973-0.196h-1.106zM5.376 3.929c0.769-0.559 1.763-0.893 3.386-1.069 1.648-0.179 3.779-0.18 6.764-0.18h0.946c2.985 0 5.117 0.002 6.764 0.18 1.623 0.176 2.617 0.51 3.386 1.069 0.555 0.403 1.044 0.892 1.447 1.447 0.559 0.769 0.893 1.763 1.069 3.386 0.179 1.648 0.18 3.779 0.18 6.764v0.946c0 2.985-0.002 5.117-0.18 6.764-0.176 1.623-0.51 2.617-1.069 3.386-0.404 0.555-0.892 1.044-1.447 1.447-0.769 0.559-1.764 0.893-3.386 1.069-1.648 0.179-3.779 0.18-6.764 0.18h-0.946c-2.985 0-5.117-0.002-6.764-0.18-1.623-0.176-2.617-0.51-3.386-1.069-0.555-0.404-1.044-0.892-1.447-1.447-0.559-0.769-0.893-1.764-1.069-3.386-0.179-1.648-0.18-3.779-0.18-6.764v-0.946c0-2.985 0.002-5.117 0.18-6.764 0.176-1.623 0.51-2.617 1.069-3.386 0.403-0.555 0.892-1.044 1.447-1.447z"></path>
</symbol>
<symbol id="icon-WFP" viewBox="0 0 162 32">
<path d="M0 0h161.6v32h-161.6v-32z"></path>
</symbol>
</defs>
</svg>
