<svg width="24" height="24" viewBox="0 0 24 24" fill="none" xmlns="http://www.w3.org/2000/svg">
<path fill-rule="evenodd" clip-rule="evenodd" d="M6.67973 2.92814C8.44031 2.73271 10.2077 2.57157 11.9992 2.57157C13.7906 2.57157 15.558 2.73271 17.3186 2.92814C18.2816 3.03996 19.1785 3.47437 19.8632 4.16069C20.548 4.84701 20.9804 5.74486 21.09 6.70814C21.2769 8.45671 21.4277 10.2173 21.4277 12.0001C21.4277 13.783 21.2769 15.5436 21.09 17.2921C20.9804 18.2554 20.548 19.1533 19.8632 19.8396C19.1785 20.5259 18.2816 20.9603 17.3186 21.0721C15.558 21.2676 13.7906 21.4287 11.9992 21.4287C10.2077 21.4287 8.44031 21.2676 6.67973 21.0721C5.7167 20.9603 4.81985 20.5259 4.13508 19.8396C3.45032 19.1533 3.01794 18.2554 2.90831 17.2921C2.72145 15.5436 2.57059 13.783 2.57059 12.0001C2.57059 10.2173 2.72145 8.45671 2.90831 6.70814C3.01794 5.74486 3.45032 4.84701 4.13508 4.16069C4.81985 3.47437 5.7167 3.03996 6.67973 2.92814ZM11.9992 0.428711C10.0877 0.428711 8.22431 0.60014 6.44488 0.797282C4.99594 0.962298 3.64596 1.61441 2.61603 2.64684C1.5861 3.67926 0.937248 5.0308 0.775734 6.48014C0.588877 8.251 0.427734 10.1024 0.427734 12.0001C0.427734 13.8979 0.588877 15.7493 0.777449 17.5201C0.939178 18.9686 1.58769 20.3194 2.61691 21.3514C3.64612 22.3834 4.9951 23.0356 6.44316 23.2013C8.22431 23.4001 10.0877 23.5716 11.9992 23.5716C13.9106 23.5716 15.774 23.4001 17.5534 23.203C19.0023 23.0375 20.3521 22.385 21.3817 21.3523C22.4114 20.3195 23.0598 18.9678 23.2209 17.5184C23.4094 15.7493 23.5706 13.8979 23.5706 12.0001C23.5706 10.1024 23.4094 8.251 23.2209 6.48014C23.0595 5.03132 22.4112 3.68018 21.3819 2.64782C20.3527 1.61546 19.0035 0.963024 17.5552 0.797282C15.774 0.60014 13.9106 0.428711 11.9992 0.428711ZM14.3632 5.60071C14.2909 5.29412 14.1086 5.02473 13.8509 4.84364C13.5932 4.66255 13.2779 4.58237 12.965 4.61831C12.6521 4.65426 12.3632 4.80382 12.1533 5.03863C11.9433 5.27344 11.8269 5.57715 11.826 5.89214V14.7653C11.826 15.1721 11.7054 15.5697 11.4794 15.908C11.2535 16.2462 10.9323 16.5099 10.5565 16.6657C10.1807 16.8214 9.76718 16.8623 9.36818 16.783C8.96918 16.7038 8.60263 16.508 8.31486 16.2205C8.0271 15.933 7.83104 15.5666 7.75147 15.1677C7.6719 14.7687 7.7124 14.3552 7.86783 13.9792C8.02327 13.6033 8.28667 13.2819 8.62474 13.0557C8.96281 12.8294 9.36037 12.7085 9.76716 12.7081C10.1082 12.7081 10.4352 12.5727 10.6763 12.3316C10.9174 12.0904 11.0529 11.7634 11.0529 11.4224C11.0529 11.0814 10.9174 10.7544 10.6763 10.5133C10.4352 10.2722 10.1082 10.1367 9.76716 10.1367C8.85172 10.1367 7.95683 10.4082 7.19567 10.9168C6.4345 11.4254 5.84125 12.1482 5.49092 12.994C5.14059 13.8398 5.04893 14.7704 5.22753 15.6683C5.40612 16.5661 5.84695 17.3909 6.49427 18.0382C7.14159 18.6855 7.96632 19.1263 8.86417 19.3049C9.76203 19.4835 10.6927 19.3918 11.5384 19.0415C12.3842 18.6912 13.1071 18.0979 13.6157 17.3368C14.1243 16.5756 14.3957 15.6807 14.3957 14.7653V10.0527C15.2889 10.6339 16.3637 10.9441 17.5757 10.9441C17.9167 10.9441 18.2438 10.8087 18.4849 10.5676C18.726 10.3264 18.8615 9.99942 18.8615 9.65843C18.8615 9.31743 18.726 8.99041 18.4849 8.74929C18.2438 8.50817 17.9167 8.37271 17.5757 8.37271C16.6329 8.37271 15.9592 8.083 15.4706 7.64757C14.9666 7.19843 14.5757 6.51443 14.3632 5.60071Z" fill="white"/>
</svg>
